HIERARCHY
ROOT Hips
{
 OFFSET 0.000000 0.000000 0.000000
 CHANNELS 6 Xposition Yposition Zposition Yrotation Xrotation Zrotation
 JOINT Chest
 {
  OFFSET 0.000000 9.585900 0.002600
  CHANNELS 3 Yrotation Xrotation Zrotation
  JOINT Chest2
  {
   OFFSET 0.000000 9.601200 -0.005300
   CHANNELS 3 Yrotation Xrotation Zrotation
   JOINT Chest3
   {
    OFFSET 0.000000 9.561800 0.000000
    CHANNELS 3 Yrotation Xrotation Zrotation
    JOINT Chest4
    {
     OFFSET 0.000000 9.552100 0.000000
     CHANNELS 3 Yrotation Xrotation Zrotation
     JOINT Neck
     {
      OFFSET 0.000000 14.453000 0.000000
      CHANNELS 3 Yrotation Xrotation Zrotation
      JOINT Head
      {
       OFFSET 0.000000 8.936500 -0.011300
       CHANNELS 3 Yrotation Xrotation Zrotation
       End Site
       {
        OFFSET 0.000000 17.073600 -0.006000
       }
      }
     }
     JOINT RightCollar
     {
      OFFSET -2.921100 9.558500 0.000000
      CHANNELS 3 Yrotation Xrotation Zrotation
      JOINT RightShoulder
      {
       OFFSET -13.519700 0.000000 0.000000
       CHANNELS 3 Yrotation Xrotation Zrotation
       JOINT RightElbow
       {
        OFFSET 0.000000 -29.696600 0.000000
        CHANNELS 3 Yrotation Xrotation Zrotation
        JOINT RightWrist
        {
         OFFSET 0.000000 -24.004700 0.000000
         CHANNELS 3 Yrotation Xrotation Zrotation
         End Site
         {
          OFFSET 0.000000 -17.728500 0.000000
         }
        }
       }
      }
     }
     JOINT LeftCollar
     {
      OFFSET 2.921100 9.558500 0.000000
      CHANNELS 3 Yrotation Xrotation Zrotation
      JOINT LeftShoulder
      {
       OFFSET 13.519700 0.000000 0.000000
       CHANNELS 3 Yrotation Xrotation Zrotation
       JOINT LeftElbow
       {
        OFFSET 0.000000 -29.696600 0.000000
        CHANNELS 3 Yrotation Xrotation Zrotation
        JOINT LeftWrist
        {
         OFFSET 0.000000 -24.004700 0.000000
         CHANNELS 3 Yrotation Xrotation Zrotation
         End Site
         {
          OFFSET 0.000000 -17.728500 0.000000
         }
        }
       }
      }
     }
    }
   }
  }
 }
 JOINT RightHip
 {
  OFFSET -7.771700 -0.012900 -0.001300
  CHANNELS 3 Yrotation Xrotation Zrotation
  JOINT RightKnee
  {
   OFFSET 0.000000 -40.869800 0.001200
   CHANNELS 3 Yrotation Xrotation Zrotation
   JOINT RightAnkle
   {
    OFFSET 0.000000 -39.717900 0.002100
    CHANNELS 3 Yrotation Xrotation Zrotation
    JOINT RightToe
    {
     OFFSET 0.000000 -4.965400 11.033500
     CHANNELS 3 Yrotation Xrotation Zrotation
     End Site
     {
      OFFSET 0.000000 -1.423100 5.872300
     }
    }
   }
  }
 }
 JOINT LeftHip
 {
  OFFSET 7.771700 -0.012900 -0.001300
  CHANNELS 3 Yrotation Xrotation Zrotation
  JOINT LeftKnee
  {
   OFFSET 0.000000 -40.869800 0.001200
   CHANNELS 3 Yrotation Xrotation Zrotation
   JOINT LeftAnkle
   {
    OFFSET 0.000000 -39.717900 0.002100
    CHANNELS 3 Yrotation Xrotation Zrotation
    JOINT LeftToe
    {
     OFFSET 0.000000 -4.965400 11.033500
     CHANNELS 3 Yrotation Xrotation Zrotation
     End Site
     {
      OFFSET 0.000000 -1.423100 5.872300
     }
    }
   }
  }
 }
}
MOTION
Frames: 13
Frame Time: 0.008333
0.000000 85.388000 0.000000 0.000000 -5.767877 0.000000 0.000000 11.653817 0.000000 0.000000 -5.885947 0.000000 0.000000 -0.000000 0.000000 0.000000 -0.000000 0.000000 0.000000 12.528835 0.000000 0.000000 0.711642 0.000000 0.000000 -0.000000 0.000000 0.000000 0.000000 -90.000000 0.000000 -2.309062 0.000000 0.000000 2.309062 0.000000 0.000000 -0.000000 0.000000 0.000000 -0.000000 90.000000 0.000000 -2.309062 0.000000 0.000000 2.309062 0.000000 0.000000 8.520406 0.000000 0.000000 1.905762 0.000000 -0.000000 -4.658285 0.000000 0.000000 -0.000000 0.000000 0.000000 8.520406 0.000000 0.000000 1.905762 0.000000 -0.000000 -4.658285 0.000000 0.000000 -0.000000 0.000000
-34.960080 43.875995 35.757513 -179.445919 -24.362520 -0.909474 -3.053131 14.614902 1.757157 -0.322950 1.369369 0.252656 -0.539863 2.303958 0.420607 -2.882724 13.132579 2.129801 -0.454407 12.161864 -5.273787 0.739661 -12.856553 -5.557760 8.171212 0.924663 -6.956917 -5.404020 -13.941714 -21.808043 -112.704516 -49.644237 150.794022 -10.528234 4.451030 -9.043960 -15.748520 -0.528440 -2.341766 -1.065630 -13.538321 7.298720 120.920967 -54.362870 -162.536762 6.777465 1.704032 -21.793317 -5.839306 -68.443477 9.518168 -155.916947 71.016821 -155.176607 -11.576408 -23.285739 8.037880 0.384975 -1.141476 0.152062 5.585989 -57.476898 -9.034185 175.237798 64.026133 175.301996 -2.986239 -33.774388 4.679285 0.058589 0.175787 0.020498
-34.958771 43.876953 35.754359 -179.449653 -24.353039 -0.906890 -3.133907 14.677739 1.707489 -0.330871 1.381291 0.250512 -0.552982 2.323157 0.416740 -2.946440 13.179505 2.089694 -0.581861 12.020224 -5.229632 0.592943 -13.006194 -5.481546 8.402119 0.783181 -7.070455 -5.224312 -14.194677 -22.686649 -112.236156 -49.292626 150.458705 -10.876340 4.254624 -7.915676 -15.687962 -0.649785 -2.344168 -1.315584 -13.649337 7.517844 120.561468 -54.245042 -162.326203 6.601618 1.622430 -22.082267 -5.856952 -68.452425 9.532327 -155.875533 71.012773 -155.138260 -11.565693 -23.253855 8.030330 0.367589 -1.167476 0.156150 5.593627 -57.481262 -9.042897 175.241242 64.025289 175.310196 -2.976835 -33.782119 4.675808 0.057692 0.178012 0.019741
-34.956650 43.877347 35.751173 -179.462360 -24.341117 -0.901238 -3.198357 14.738679 1.658108 -0.349254 1.407794 0.240828 -0.566334 2.348420 0.411996 -3.007269 13.243084 2.042154 -0.705962 11.887086 -5.164883 0.444951 -13.147045 -5.383199 8.635986 0.618374 -7.167449 -5.053288 -14.459790 -23.571111 -111.873138 -49.012727 150.125797 -11.187995 4.089356 -6.644740 -15.626363 -0.799088 -2.321483 -1.568358 -13.730257 7.729313 120.266926 -54.165642 -162.097956 6.472623 1.567014 -22.150454 -5.860618 -68.463014 9.537305 -155.829531 71.008533 -155.091874 -11.532063 -23.235869 8.016732 0.360431 -1.176677 0.156145 5.600487 -57.487566 -9.042009 175.256414 64.023984 175.325372 -2.967216 -33.794530 4.672990 0.057342 0.182273 0.018378
-34.953472 43.877286 35.747186 -179.483368 -24.334696 -0.893695 -3.204948 14.768005 1.640096 -0.382086 1.432139 0.220960 -0.552470 2.358762 0.420867 -3.063866 13.294626 1.995316 -0.859522 11.813359 -5.095133 0.263971 -13.225706 -5.270899 8.791492 0.529790 -7.251040 -4.901508 -14.748864 -24.463058 -111.613083 -48.812234 149.783314 -11.429519 3.950910 -5.199535 -15.639064 -0.884225 -2.322182 -1.815430 -13.784506 7.924225 120.112345 -54.147274 -161.903645 6.436926 1.507143 -22.019065 -5.862008 -68.469511 9.546465 -155.796037 71.002770 -155.054987 -11.502501 -23.218303 8.000871 0.363069 -1.181557 0.155729 5.611956 -57.488597 -9.033349 175.265432 64.019697 175.333538 -2.965248 -33.806495 4.677946 0.055610 0.183166 0.012754
-34.949319 43.876128 35.743423 -179.452541 -24.329294 -0.908189 -3.273131 14.807615 1.603762 -0.360003 1.393491 0.237816 -0.558481 2.388079 0.415457 -3.067293 13.275813 1.989464 -1.056387 11.809563 -5.040389 0.070109 -13.212188 -5.165003 8.862520 0.569076 -7.339363 -4.780550 -15.077012 -25.357765 -111.450277 -48.689934 149.422869 -11.578775 3.831900 -3.584353 -15.730874 -0.865795 -2.380448 -2.043529 -13.816196 8.097237 120.085926 -54.186410 -161.750018 6.442823 1.394335 -21.790921 -5.928156 -68.476616 9.567852 -155.824336 70.990959 -155.074515 -11.481679 -23.188914 7.969907 0.370254 -1.217819 0.162757 5.578378 -57.509896 -9.031009 175.260241 64.009552 175.323709 -2.941070 -33.769217 4.673081 0.039597 0.150127 0.008510
-34.943460 43.875352 35.736341 -179.466187 -24.352294 -0.909697 -3.291347 14.799382 1.587009 -0.345050 1.408500 0.244051 -0.576545 2.366949 0.405356 -3.111401 13.288588 1.977597 -1.195321 11.867602 -4.986625 -0.104613 -13.166164 -5.073311 8.971831 0.671005 -7.423998 -4.693013 -15.448109 -26.246509 -111.387706 -48.634944 149.041946 -11.627247 3.730493 -1.844802 -15.781096 -0.791827 -2.456332 -2.233384 -13.832385 8.250680 120.098925 -54.249675 -161.608199 6.436135 1.227171 -21.601121 -5.943236 -68.455422 9.590145 -155.859886 70.985150 -155.104126 -11.475514 -23.173490 7.961146 0.378135 -1.233516 0.159116 5.559999 -57.483337 -8.992533 175.283163 64.000659 175.341645 -2.942013 -33.784656 4.672565 0.039925 0.150148 0.011003
-34.938622 43.873551 35.729045 -179.471601 -24.384616 -0.903823 -3.374341 14.812016 1.552752 -0.300591 1.409566 0.244171 -0.623298 2.374678 0.400972 -3.124178 13.328774 1.972513 -1.307235 11.916709 -4.948905 -0.250575 -13.120814 -5.000684 9.089152 0.728108 -7.534463 -4.634400 -15.854791 -27.117894 -111.433030 -48.649468 148.647675 -11.572921 3.637047 -0.079504 -15.814121 -0.759108 -2.538232 -2.374269 -13.838223 8.390458 120.075551 -54.312528 -161.450404 6.431981 1.044672 -21.536520 -5.932793 -68.424942 9.580355 -155.911714 70.978679 -155.143522 -11.506435 -23.178513 7.960090 0.373461 -1.206695 0.157397 5.547595 -57.447624 -8.968677 175.309248 63.992437 175.358440 -2.946298 -33.796596 4.680880 0.041910 0.149651 0.009207
-34.932749 43.870076 35.723304 -179.482535 -24.415788 -0.897709 -3.412834 14.860345 1.546387 -0.342984 1.420392 0.242863 -0.548792 2.349917 0.390095 -3.194905 13.413775 1.991760 -1.415164 11.950662 -4.930340 -0.370509 -13.085718 -4.954263 9.179806 0.722401 -7.676371 -4.604865 -16.296179 -27.958292 -111.594789 -48.748968 148.250949 -11.442519 3.536184 1.580479 -15.860763 -0.786949 -2.630590 -2.462161 -13.832243 8.519607 119.980766 -54.366372 -161.259780 6.442143 0.871271 -21.605694 -5.914957 -68.394909 9.572346 -155.939497 70.973136 -155.161472 -11.527851 -23.194577 7.965819 0.363056 -1.187719 0.150537 5.535092 -57.415812 -8.937175 175.314539 63.982249 175.355429 -2.961428 -33.809510 4.686676 0.042454 0.150259 0.008687
-34.925668 43.865894 35.717523 -179.498388 -24.456181 -0.893525 -3.441538 14.939610 1.557943 -0.361937 1.443207 0.248994 -0.590517 2.402231 0.403541 -3.176256 13.443780 1.996671 -1.506626 11.970682 -4.932762 -0.468067 -13.064810 -4.935467 9.251913 0.653563 -7.847062 -4.605013 -16.773623 -28.765937 -111.866344 -48.930235 147.841871 -11.286619 3.429469 3.020856 -15.915361 -0.880443 -2.735779 -2.493754 -13.814708 8.639156 119.801918 -54.406815 -161.039062 6.447428 0.712876 -21.769376 -5.930113 -68.356586 9.597226 -155.972112 70.967284 -155.194596 -11.533890 -23.211117 7.968106 0.355399 -1.175418 0.141002 5.511238 -57.376743 -8.892706 175.302740 63.968566 175.335991 -2.978949 -33.822195 4.688190 0.042361 0.149090 0.006310
-34.921634 43.863956 35.705911 -179.471930 -24.542276 -0.886681 -3.508259 15.080454 1.554881 -0.367446 1.462931 0.253753 -0.612921 2.454836 0.420425 -3.185794 13.499914 2.009929 -1.579827 11.981890 -4.948941 -0.542897 -13.052901 -4.936539 9.312759 0.525501 -8.028335 -4.629391 -17.278815 -29.545381 -112.195220 -49.175727 147.380577 -11.153128 3.320917 4.164441 -15.977059 -1.025136 -2.846967 -2.474414 -13.787464 8.749103 119.548649 -54.432400 -160.807975 6.438947 0.576390 -21.969721 -5.995863 -68.276978 9.605450 -156.117299 70.958085 -155.339319 -11.592117 -23.170690 7.933161 0.408012 -1.236348 0.162171 5.471979 -57.289670 -8.873713 175.313950 63.958183 175.333705 -2.998958 -33.825834 4.692833 0.056247 0.143615 0.014297
-34.914646 43.858655 35.701860 -179.486255 -24.585627 -0.879094 -3.513091 15.154295 1.562168 -0.387006 1.514068 0.275054 -0.621612 2.488112 0.428371 -3.205297 13.580602 2.032603 -1.632238 11.996806 -4.970635 -0.594133 -13.037051 -4.948479 9.370088 0.357929 -8.171977 -4.663621 -17.809128 -30.325355 -112.504957 -49.472924 146.830319 -11.085034 3.208754 4.960313 -16.045690 -1.194089 -2.960268 -2.417367 -13.746909 8.850909 119.245886 -54.439964 -160.584300 6.420470 0.467081 -22.148132 -6.017451 -68.237191 9.629157 -156.143783 70.952394 -155.372111 -11.580973 -23.184232 7.928576 0.409093 -1.230758 0.159503 5.447339 -57.246510 -8.831828 175.319909 63.948634 175.327431 -3.008080 -33.845416 4.694372 0.054068 0.151273 0.011166
-34.907887 43.853026 35.699560 -179.499992 -24.622138 -0.870618 -3.516401 15.222732 1.570011 -0.406728 1.552503 0.291700 -0.608633 2.474784 0.417481 -3.245802 13.696446 2.066323 -1.659687 12.034323 -4.990693 -0.618983 -12.997580 -4.963604 9.429402 0.203981 -8.299817 -4.714879 -18.374101 -31.061940 -112.737036 -49.806843 146.168432 -11.108872 3.097594 5.387201 -16.116285 -1.350578 -3.075762 -2.327744 -13.734556 8.954038 118.849005 -54.439394 -160.308344 6.387679 0.378200 -22.264758 -6.063902 -68.202955 9.670051 -156.170333 70.949284 -155.417227 -11.544493 -23.197273 7.922217 0.382111 -1.228515 0.145611 5.424721 -57.211796 -8.794931 175.332827 63.940923 175.329668 -3.015312 -33.861660 4.690663 0.056409 0.158611 0.011923
